<svg width="388" height="300" viewBox="0 0 388 300" fill="none" xmlns="http://www.w3.org/2000/svg">
<rect width="387.5" height="300" fill="#99BBD1"/>
<path d="M203.378 143.144V146H187.25V143.144H193.697V122.627C193.697 122.011 193.718 121.388 193.76 120.758L188.405 125.357C188.223 125.511 188.041 125.609 187.859 125.651C187.677 125.679 187.509 125.679 187.355 125.651C187.201 125.623 187.054 125.567 186.914 125.483C186.788 125.399 186.69 125.308 186.62 125.21L185.444 123.593L194.411 115.844H197.456V143.144H203.378ZM230.303 130.964C230.303 133.596 230.016 135.878 229.442 137.81C228.882 139.728 228.112 141.317 227.132 142.577C226.152 143.837 224.99 144.775 223.646 145.391C222.316 146.007 220.888 146.315 219.362 146.315C217.822 146.315 216.387 146.007 215.057 145.391C213.741 144.775 212.593 143.837 211.613 142.577C210.633 141.317 209.863 139.728 209.303 137.81C208.743 135.878 208.463 133.596 208.463 130.964C208.463 128.332 208.743 126.05 209.303 124.118C209.863 122.186 210.633 120.59 211.613 119.33C212.593 118.056 213.741 117.111 215.057 116.495C216.387 115.879 217.822 115.571 219.362 115.571C220.888 115.571 222.316 115.879 223.646 116.495C224.99 117.111 226.152 118.056 227.132 119.33C228.112 120.59 228.882 122.186 229.442 124.118C230.016 126.05 230.303 128.332 230.303 130.964ZM226.418 130.964C226.418 128.668 226.222 126.743 225.83 125.189C225.452 123.621 224.934 122.361 224.276 121.409C223.632 120.457 222.883 119.778 222.029 119.372C221.175 118.952 220.286 118.742 219.362 118.742C218.438 118.742 217.549 118.952 216.695 119.372C215.841 119.778 215.092 120.457 214.448 121.409C213.804 122.361 213.286 123.621 212.894 125.189C212.516 126.743 212.327 128.668 212.327 130.964C212.327 133.26 212.516 135.185 212.894 136.739C213.286 138.293 213.804 139.546 214.448 140.498C215.092 141.45 215.841 142.136 216.695 142.556C217.549 142.962 218.438 143.165 219.362 143.165C220.286 143.165 221.175 142.962 222.029 142.556C222.883 142.136 223.632 141.45 224.276 140.498C224.934 139.546 225.452 138.293 225.83 136.739C226.222 135.185 226.418 133.26 226.418 130.964ZM235.137 124.055C235.333 122.683 235.711 121.472 236.271 120.422C236.831 119.358 237.538 118.469 238.392 117.755C239.26 117.041 240.247 116.502 241.353 116.138C242.473 115.76 243.677 115.571 244.965 115.571C246.239 115.571 247.415 115.753 248.493 116.117C249.571 116.481 250.495 116.999 251.265 117.671C252.049 118.343 252.658 119.155 253.092 120.107C253.526 121.059 253.743 122.116 253.743 123.278C253.743 124.23 253.617 125.084 253.365 125.84C253.127 126.582 252.777 127.233 252.315 127.793C251.867 128.353 251.321 128.829 250.677 129.221C250.033 129.613 249.312 129.935 248.514 130.187C250.474 130.691 251.944 131.559 252.924 132.791C253.918 134.009 254.415 135.535 254.415 137.369C254.415 138.755 254.149 140.001 253.617 141.107C253.099 142.213 252.385 143.158 251.475 143.942C250.565 144.712 249.501 145.307 248.283 145.727C247.079 146.133 245.784 146.336 244.398 146.336C242.802 146.336 241.437 146.14 240.303 145.748C239.169 145.342 238.21 144.789 237.426 144.089C236.642 143.389 235.998 142.563 235.494 141.611C234.99 140.645 234.563 139.602 234.213 138.482L235.83 137.81C236.25 137.628 236.656 137.579 237.048 137.663C237.454 137.747 237.748 137.978 237.93 138.356C238.112 138.748 238.336 139.217 238.602 139.763C238.882 140.309 239.26 140.834 239.736 141.338C240.212 141.842 240.814 142.269 241.542 142.619C242.284 142.969 243.222 143.144 244.356 143.144C245.406 143.144 246.323 142.976 247.107 142.64C247.905 142.29 248.563 141.842 249.081 141.296C249.613 140.75 250.012 140.141 250.278 139.469C250.544 138.797 250.677 138.132 250.677 137.474C250.677 136.662 250.572 135.92 250.362 135.248C250.152 134.576 249.76 133.995 249.186 133.505C248.612 133.015 247.821 132.63 246.813 132.35C245.819 132.07 244.538 131.93 242.97 131.93V129.221C244.258 129.207 245.35 129.067 246.246 128.801C247.156 128.535 247.891 128.171 248.451 127.709C249.025 127.247 249.438 126.694 249.69 126.05C249.956 125.406 250.089 124.692 250.089 123.908C250.089 123.04 249.949 122.284 249.669 121.64C249.403 120.996 249.032 120.464 248.556 120.044C248.08 119.624 247.513 119.309 246.855 119.099C246.211 118.889 245.511 118.784 244.755 118.784C243.999 118.784 243.292 118.896 242.634 119.12C241.99 119.344 241.416 119.659 240.912 120.065C240.422 120.457 240.009 120.926 239.673 121.472C239.337 122.018 239.099 122.62 238.959 123.278C238.777 123.768 238.546 124.097 238.266 124.265C238 124.419 237.608 124.461 237.09 124.391L235.137 124.055ZM280.71 130.964C280.71 133.596 280.423 135.878 279.849 137.81C279.289 139.728 278.519 141.317 277.539 142.577C276.559 143.837 275.397 144.775 274.053 145.391C272.723 146.007 271.295 146.315 269.769 146.315C268.229 146.315 266.794 146.007 265.464 145.391C264.148 144.775 263 143.837 262.02 142.577C261.04 141.317 260.27 139.728 259.71 137.81C259.15 135.878 258.87 133.596 258.87 130.964C258.87 128.332 259.15 126.05 259.71 124.118C260.27 122.186 261.04 120.59 262.02 119.33C263 118.056 264.148 117.111 265.464 116.495C266.794 115.879 268.229 115.571 269.769 115.571C271.295 115.571 272.723 115.879 274.053 116.495C275.397 117.111 276.559 118.056 277.539 119.33C278.519 120.59 279.289 122.186 279.849 124.118C280.423 126.05 280.71 128.332 280.71 130.964ZM276.825 130.964C276.825 128.668 276.629 126.743 276.237 125.189C275.859 123.621 275.341 122.361 274.683 121.409C274.039 120.457 273.29 119.778 272.436 119.372C271.582 118.952 270.693 118.742 269.769 118.742C268.845 118.742 267.956 118.952 267.102 119.372C266.248 119.778 265.499 120.457 264.855 121.409C264.211 122.361 263.693 123.621 263.301 125.189C262.923 126.743 262.734 128.668 262.734 130.964C262.734 133.26 262.923 135.185 263.301 136.739C263.693 138.293 264.211 139.546 264.855 140.498C265.499 141.45 266.248 142.136 267.102 142.556C267.956 142.962 268.845 143.165 269.769 143.165C270.693 143.165 271.582 142.962 272.436 142.556C273.29 142.136 274.039 141.45 274.683 140.498C275.341 139.546 275.859 138.293 276.237 136.739C276.629 135.185 276.825 133.26 276.825 130.964ZM305.913 130.964C305.913 133.596 305.626 135.878 305.052 137.81C304.492 139.728 303.722 141.317 302.742 142.577C301.762 143.837 300.6 144.775 299.256 145.391C297.926 146.007 296.498 146.315 294.972 146.315C293.432 146.315 291.997 146.007 290.667 145.391C289.351 144.775 288.203 143.837 287.223 142.577C286.243 141.317 285.473 139.728 284.913 137.81C284.353 135.878 284.073 133.596 284.073 130.964C284.073 128.332 284.353 126.05 284.913 124.118C285.473 122.186 286.243 120.59 287.223 119.33C288.203 118.056 289.351 117.111 290.667 116.495C291.997 115.879 293.432 115.571 294.972 115.571C296.498 115.571 297.926 115.879 299.256 116.495C300.6 117.111 301.762 118.056 302.742 119.33C303.722 120.59 304.492 122.186 305.052 124.118C305.626 126.05 305.913 128.332 305.913 130.964ZM302.028 130.964C302.028 128.668 301.832 126.743 301.44 125.189C301.062 123.621 300.544 122.361 299.886 121.409C299.242 120.457 298.493 119.778 297.639 119.372C296.785 118.952 295.896 118.742 294.972 118.742C294.048 118.742 293.159 118.952 292.305 119.372C291.451 119.778 290.702 120.457 290.058 121.409C289.414 122.361 288.896 123.621 288.504 125.189C288.126 126.743 287.937 128.668 287.937 130.964C287.937 133.26 288.126 135.185 288.504 136.739C288.896 138.293 289.414 139.546 290.058 140.498C290.702 141.45 291.451 142.136 292.305 142.556C293.159 142.962 294.048 143.165 294.972 143.165C295.896 143.165 296.785 142.962 297.639 142.556C298.493 142.136 299.242 141.45 299.886 140.498C300.544 139.546 301.062 138.293 301.44 136.739C301.832 135.185 302.028 133.26 302.028 130.964ZM330.276 133.316H321.708V142.346H318.663V133.316H310.137V130.481H318.663V121.514H321.708V130.481H330.276V133.316Z" fill="#232323"/>
<path d="M195.74 170.865C195.65 171.015 195.55 171.13 195.44 171.21C195.34 171.28 195.215 171.315 195.065 171.315C194.895 171.315 194.695 171.23 194.465 171.06C194.235 170.89 193.945 170.705 193.595 170.505C193.255 170.295 192.84 170.105 192.35 169.935C191.87 169.765 191.285 169.68 190.595 169.68C189.945 169.68 189.37 169.77 188.87 169.95C188.38 170.12 187.965 170.355 187.625 170.655C187.295 170.955 187.045 171.31 186.875 171.72C186.705 172.12 186.62 172.555 186.62 173.025C186.62 173.625 186.765 174.125 187.055 174.525C187.355 174.915 187.745 175.25 188.225 175.53C188.715 175.81 189.265 176.055 189.875 176.265C190.495 176.465 191.125 176.675 191.765 176.895C192.415 177.115 193.045 177.365 193.655 177.645C194.275 177.915 194.825 178.26 195.305 178.68C195.795 179.1 196.185 179.615 196.475 180.225C196.775 180.835 196.925 181.585 196.925 182.475C196.925 183.415 196.765 184.3 196.445 185.13C196.125 185.95 195.655 186.665 195.035 187.275C194.425 187.885 193.67 188.365 192.77 188.715C191.88 189.065 190.865 189.24 189.725 189.24C188.325 189.24 187.055 188.99 185.915 188.49C184.775 187.98 183.8 187.295 182.99 186.435L183.83 185.055C183.91 184.945 184.005 184.855 184.115 184.785C184.235 184.705 184.365 184.665 184.505 184.665C184.635 184.665 184.78 184.72 184.94 184.83C185.11 184.93 185.3 185.06 185.51 185.22C185.72 185.38 185.96 185.555 186.23 185.745C186.5 185.935 186.805 186.11 187.145 186.27C187.495 186.43 187.89 186.565 188.33 186.675C188.77 186.775 189.265 186.825 189.815 186.825C190.505 186.825 191.12 186.73 191.66 186.54C192.2 186.35 192.655 186.085 193.025 185.745C193.405 185.395 193.695 184.98 193.895 184.5C194.095 184.02 194.195 183.485 194.195 182.895C194.195 182.245 194.045 181.715 193.745 181.305C193.455 180.885 193.07 180.535 192.59 180.255C192.11 179.975 191.56 179.74 190.94 179.55C190.32 179.35 189.69 179.15 189.05 178.95C188.41 178.74 187.78 178.5 187.16 178.23C186.54 177.96 185.99 177.61 185.51 177.18C185.03 176.75 184.64 176.215 184.34 175.575C184.05 174.925 183.905 174.125 183.905 173.175C183.905 172.415 184.05 171.68 184.34 170.97C184.64 170.26 185.07 169.63 185.63 169.08C186.2 168.53 186.895 168.09 187.715 167.76C188.545 167.43 189.495 167.265 190.565 167.265C191.765 167.265 192.855 167.455 193.835 167.835C194.825 168.215 195.695 168.765 196.445 169.485L195.74 170.865ZM216.169 169.95H209.209V189H206.314V169.95H199.339V167.505H216.169V169.95ZM228.254 186.69C229.144 186.69 229.939 186.54 230.639 186.24C231.339 185.94 231.929 185.52 232.409 184.98C232.899 184.44 233.269 183.795 233.519 183.045C233.779 182.295 233.909 181.47 233.909 180.57V167.505H236.804V180.57C236.804 181.81 236.604 182.96 236.204 184.02C235.814 185.08 235.249 186 234.509 186.78C233.779 187.55 232.884 188.155 231.824 188.595C230.764 189.035 229.574 189.255 228.254 189.255C226.934 189.255 225.744 189.035 224.684 188.595C223.624 188.155 222.724 187.55 221.984 186.78C221.244 186 220.674 185.08 220.274 184.02C219.884 182.96 219.689 181.81 219.689 180.57V167.505H222.584V180.555C222.584 181.455 222.709 182.28 222.959 183.03C223.219 183.78 223.589 184.425 224.069 184.965C224.559 185.505 225.154 185.93 225.854 186.24C226.564 186.54 227.364 186.69 228.254 186.69ZM261.249 178.26C261.249 179.87 260.994 181.335 260.484 182.655C259.974 183.975 259.254 185.105 258.324 186.045C257.394 186.985 256.274 187.715 254.964 188.235C253.664 188.745 252.224 189 250.644 189H242.619V167.505H250.644C252.224 167.505 253.664 167.765 254.964 168.285C256.274 168.795 257.394 169.525 258.324 170.475C259.254 171.415 259.974 172.545 260.484 173.865C260.994 175.185 261.249 176.65 261.249 178.26ZM258.264 178.26C258.264 176.94 258.084 175.76 257.724 174.72C257.364 173.68 256.854 172.8 256.194 172.08C255.534 171.36 254.734 170.81 253.794 170.43C252.854 170.05 251.804 169.86 250.644 169.86H245.529V186.645H250.644C251.804 186.645 252.854 186.455 253.794 186.075C254.734 185.695 255.534 185.15 256.194 184.44C256.854 183.72 257.364 182.84 257.724 181.8C258.084 180.76 258.264 179.58 258.264 178.26ZM279.301 186.63L279.286 189H266.041V167.505H279.286V169.875H268.951V177.015H277.321V179.295H268.951V186.63H279.301ZM301.371 167.505V189H299.916C299.686 189 299.491 188.96 299.331 188.88C299.181 188.8 299.031 188.665 298.881 188.475L286.446 172.275C286.466 172.525 286.481 172.77 286.491 173.01C286.501 173.25 286.506 173.475 286.506 173.685V189H283.956V167.505H285.456C285.586 167.505 285.696 167.515 285.786 167.535C285.876 167.545 285.956 167.57 286.026 167.61C286.096 167.64 286.166 167.69 286.236 167.76C286.306 167.82 286.381 167.9 286.461 168L298.896 184.185C298.876 183.925 298.856 183.675 298.836 183.435C298.826 183.185 298.821 182.95 298.821 182.73V167.505H301.371ZM322.001 169.95H315.041V189H312.146V169.95H305.171V167.505H322.001V169.95ZM336.698 170.865C336.608 171.015 336.508 171.13 336.398 171.21C336.298 171.28 336.173 171.315 336.023 171.315C335.853 171.315 335.653 171.23 335.423 171.06C335.193 170.89 334.903 170.705 334.553 170.505C334.213 170.295 333.798 170.105 333.308 169.935C332.828 169.765 332.243 169.68 331.553 169.68C330.903 169.68 330.328 169.77 329.828 169.95C329.338 170.12 328.923 170.355 328.583 170.655C328.253 170.955 328.003 171.31 327.833 171.72C327.663 172.12 327.578 172.555 327.578 173.025C327.578 173.625 327.723 174.125 328.013 174.525C328.313 174.915 328.703 175.25 329.183 175.53C329.673 175.81 330.223 176.055 330.833 176.265C331.453 176.465 332.083 176.675 332.723 176.895C333.373 177.115 334.003 177.365 334.613 177.645C335.233 177.915 335.783 178.26 336.263 178.68C336.753 179.1 337.143 179.615 337.433 180.225C337.733 180.835 337.883 181.585 337.883 182.475C337.883 183.415 337.723 184.3 337.403 185.13C337.083 185.95 336.613 186.665 335.993 187.275C335.383 187.885 334.628 188.365 333.728 188.715C332.838 189.065 331.823 189.24 330.683 189.24C329.283 189.24 328.013 188.99 326.873 188.49C325.733 187.98 324.758 187.295 323.948 186.435L324.788 185.055C324.868 184.945 324.963 184.855 325.073 184.785C325.193 184.705 325.323 184.665 325.463 184.665C325.593 184.665 325.738 184.72 325.898 184.83C326.068 184.93 326.258 185.06 326.468 185.22C326.678 185.38 326.918 185.555 327.188 185.745C327.458 185.935 327.763 186.11 328.103 186.27C328.453 186.43 328.848 186.565 329.288 186.675C329.728 186.775 330.223 186.825 330.773 186.825C331.463 186.825 332.078 186.73 332.618 186.54C333.158 186.35 333.613 186.085 333.983 185.745C334.363 185.395 334.653 184.98 334.853 184.5C335.053 184.02 335.153 183.485 335.153 182.895C335.153 182.245 335.003 181.715 334.703 181.305C334.413 180.885 334.028 180.535 333.548 180.255C333.068 179.975 332.518 179.74 331.898 179.55C331.278 179.35 330.648 179.15 330.008 178.95C329.368 178.74 328.738 178.5 328.118 178.23C327.498 177.96 326.948 177.61 326.468 177.18C325.988 176.75 325.598 176.215 325.298 175.575C325.008 174.925 324.863 174.125 324.863 173.175C324.863 172.415 325.008 171.68 325.298 170.97C325.598 170.26 326.028 169.63 326.588 169.08C327.158 168.53 327.853 168.09 328.673 167.76C329.503 167.43 330.453 167.265 331.523 167.265C332.723 167.265 333.813 167.455 334.793 167.835C335.783 168.215 336.653 168.765 337.403 169.485L336.698 170.865Z" fill="#232323" fill-opacity="0.8"/>
<g clip-path="url(#clip0_4_1037)">
<path fill-rule="evenodd" clip-rule="evenodd" d="M130.27 173.88L129.73 153.89L96.88 163.38C93.92 164.03 91 164.34 88.14 164.35C85.07 164.36 82.05 164.03 79.08 163.38L47.7 153.79V174.06C48.6 184.59 78.81 187.81 88.08 188.25C95.51 188.61 124.86 184.73 128.72 178.68C129.55 177.36 130.07 175.76 130.27 173.88ZM143.58 139.5V163.93H144.35C144.88 163.93 145.31 164.36 145.31 164.89V171.46C145.31 171.98 144.88 172.42 144.35 172.42H143.58V174.72C144.56 174.9 145.31 175.77 145.31 176.8C145.31 177.96 144.35 178.92 143.19 178.92H139.4C138.24 178.92 137.28 177.97 137.28 176.8C137.28 175.77 138.03 174.9 139.01 174.72V172.42H138.24C137.72 172.42 137.28 171.99 137.28 171.46V164.89C137.28 164.36 137.71 163.93 138.24 163.93H139.01V140.93L99.03 153.35C91.79 155.07 84.55 155.19 77.31 153.35L33.18 140.18L29.19 138.99C24.22 136.96 25.46 132.19 30.09 131.09L80 116.19C85.15 114.72 90.29 114.49 95.44 116.19L144.45 130.91C149.78 132.21 150.83 137.14 144.63 139.17L143.58 139.5Z" fill="#232323"/>
</g>
<defs>
<clipPath id="clip0_4_1037">
<rect width="122.88" height="73.27" fill="white" transform="translate(26 115)"/>
</clipPath>
</defs>
</svg>
