<svg width="388" height="300" viewBox="0 0 388 300" fill="none" xmlns="http://www.w3.org/2000/svg">
<g clip-path="url(#clip0_4_1038)">
<rect width="387.5" height="300" transform="translate(0.5)" fill="#202020"/>
<path d="M207.446 124.268C209.014 123.932 210.456 123.764 211.772 123.764C213.34 123.764 214.726 123.995 215.93 124.457C217.134 124.919 218.135 125.556 218.933 126.368C219.745 127.18 220.354 128.139 220.76 129.245C221.18 130.351 221.39 131.555 221.39 132.857C221.39 134.453 221.11 135.895 220.55 137.183C220.004 138.471 219.241 139.577 218.261 140.501C217.295 141.411 216.154 142.111 214.838 142.601C213.522 143.091 212.101 143.336 210.575 143.336C209.693 143.336 208.846 143.245 208.034 143.063C207.222 142.895 206.459 142.664 205.745 142.37C205.045 142.076 204.394 141.74 203.792 141.362C203.19 140.984 202.658 140.585 202.196 140.165L203.351 138.569C203.603 138.205 203.932 138.023 204.338 138.023C204.618 138.023 204.933 138.135 205.283 138.359C205.633 138.569 206.06 138.807 206.564 139.073C207.068 139.339 207.656 139.584 208.328 139.808C209.014 140.018 209.826 140.123 210.764 140.123C211.814 140.123 212.759 139.955 213.599 139.619C214.439 139.283 215.16 138.807 215.762 138.191C216.364 137.561 216.826 136.812 217.148 135.944C217.47 135.076 217.631 134.103 217.631 133.025C217.631 132.087 217.491 131.24 217.211 130.484C216.945 129.728 216.532 129.084 215.972 128.552C215.426 128.02 214.74 127.607 213.914 127.313C213.088 127.019 212.122 126.872 211.016 126.872C210.26 126.872 209.469 126.935 208.643 127.061C207.831 127.187 206.998 127.39 206.144 127.67L203.792 126.977L206.207 112.907H220.466V114.545C220.466 115.077 220.298 115.518 219.962 115.868C219.64 116.204 219.08 116.372 218.282 116.372H208.832L207.446 124.268ZM248.147 127.964C248.147 130.596 247.86 132.878 247.286 134.81C246.726 136.728 245.956 138.317 244.976 139.577C243.996 140.837 242.834 141.775 241.49 142.391C240.16 143.007 238.732 143.315 237.206 143.315C235.666 143.315 234.231 143.007 232.901 142.391C231.585 141.775 230.437 140.837 229.457 139.577C228.477 138.317 227.707 136.728 227.147 134.81C226.587 132.878 226.307 130.596 226.307 127.964C226.307 125.332 226.587 123.05 227.147 121.118C227.707 119.186 228.477 117.59 229.457 116.33C230.437 115.056 231.585 114.111 232.901 113.495C234.231 112.879 235.666 112.571 237.206 112.571C238.732 112.571 240.16 112.879 241.49 113.495C242.834 114.111 243.996 115.056 244.976 116.33C245.956 117.59 246.726 119.186 247.286 121.118C247.86 123.05 248.147 125.332 248.147 127.964ZM244.262 127.964C244.262 125.668 244.066 123.743 243.674 122.189C243.296 120.621 242.778 119.361 242.12 118.409C241.476 117.457 240.727 116.778 239.873 116.372C239.019 115.952 238.13 115.742 237.206 115.742C236.282 115.742 235.393 115.952 234.539 116.372C233.685 116.778 232.936 117.457 232.292 118.409C231.648 119.361 231.13 120.621 230.738 122.189C230.36 123.743 230.171 125.668 230.171 127.964C230.171 130.26 230.36 132.185 230.738 133.739C231.13 135.293 231.648 136.546 232.292 137.498C232.936 138.45 233.685 139.136 234.539 139.556C235.393 139.962 236.282 140.165 237.206 140.165C238.13 140.165 239.019 139.962 239.873 139.556C240.727 139.136 241.476 138.45 242.12 137.498C242.778 136.546 243.296 135.293 243.674 133.739C244.066 132.185 244.262 130.26 244.262 127.964ZM273.35 127.964C273.35 130.596 273.063 132.878 272.489 134.81C271.929 136.728 271.159 138.317 270.179 139.577C269.199 140.837 268.037 141.775 266.693 142.391C265.363 143.007 263.935 143.315 262.409 143.315C260.869 143.315 259.434 143.007 258.104 142.391C256.788 141.775 255.64 140.837 254.66 139.577C253.68 138.317 252.91 136.728 252.35 134.81C251.79 132.878 251.51 130.596 251.51 127.964C251.51 125.332 251.79 123.05 252.35 121.118C252.91 119.186 253.68 117.59 254.66 116.33C255.64 115.056 256.788 114.111 258.104 113.495C259.434 112.879 260.869 112.571 262.409 112.571C263.935 112.571 265.363 112.879 266.693 113.495C268.037 114.111 269.199 115.056 270.179 116.33C271.159 117.59 271.929 119.186 272.489 121.118C273.063 123.05 273.35 125.332 273.35 127.964ZM269.465 127.964C269.465 125.668 269.269 123.743 268.877 122.189C268.499 120.621 267.981 119.361 267.323 118.409C266.679 117.457 265.93 116.778 265.076 116.372C264.222 115.952 263.333 115.742 262.409 115.742C261.485 115.742 260.596 115.952 259.742 116.372C258.888 116.778 258.139 117.457 257.495 118.409C256.851 119.361 256.333 120.621 255.941 122.189C255.563 123.743 255.374 125.668 255.374 127.964C255.374 130.26 255.563 132.185 255.941 133.739C256.333 135.293 256.851 136.546 257.495 137.498C258.139 138.45 258.888 139.136 259.742 139.556C260.596 139.962 261.485 140.165 262.409 140.165C263.333 140.165 264.222 139.962 265.076 139.556C265.93 139.136 266.679 138.45 267.323 137.498C267.981 136.546 268.499 135.293 268.877 133.739C269.269 132.185 269.465 130.26 269.465 127.964ZM297.714 130.316H289.146V139.346H286.101V130.316H277.575V127.481H286.101V118.514H289.146V127.481H297.714V130.316Z" fill="white"/>
<path d="M205.499 165.618V173.133H214.334V175.503H205.499V184.743H202.589V163.248H215.834V165.618H205.499ZM229.838 176.763L226.463 168.018C226.363 167.758 226.258 167.458 226.148 167.118C226.038 166.768 225.933 166.398 225.833 166.008C225.623 166.818 225.408 167.493 225.188 168.033L221.813 176.763H229.838ZM235.898 184.743H233.648C233.388 184.743 233.178 184.678 233.018 184.548C232.858 184.418 232.738 184.253 232.658 184.053L230.648 178.863H221.003L218.993 184.053C218.933 184.233 218.818 184.393 218.648 184.533C218.478 184.673 218.268 184.743 218.018 184.743H215.768L224.363 163.248H227.303L235.898 184.743ZM254.416 180.303C254.576 180.303 254.716 180.368 254.836 180.498L255.991 181.743C255.111 182.763 254.041 183.558 252.781 184.128C251.531 184.698 250.016 184.983 248.236 184.983C246.696 184.983 245.296 184.718 244.036 184.188C242.776 183.648 241.701 182.898 240.811 181.938C239.921 180.968 239.231 179.808 238.741 178.458C238.251 177.108 238.006 175.623 238.006 174.003C238.006 172.383 238.261 170.898 238.771 169.548C239.281 168.198 239.996 167.038 240.916 166.068C241.846 165.098 242.956 164.348 244.246 163.818C245.536 163.278 246.961 163.008 248.521 163.008C250.051 163.008 251.401 163.253 252.571 163.743C253.741 164.233 254.771 164.898 255.661 165.738L254.701 167.073C254.641 167.173 254.561 167.258 254.461 167.328C254.371 167.388 254.246 167.418 254.086 167.418C253.906 167.418 253.686 167.323 253.426 167.133C253.166 166.933 252.826 166.713 252.406 166.473C251.986 166.233 251.461 166.018 250.831 165.828C250.201 165.628 249.426 165.528 248.506 165.528C247.396 165.528 246.381 165.723 245.461 166.113C244.541 166.493 243.746 167.048 243.076 167.778C242.416 168.508 241.901 169.398 241.531 170.448C241.161 171.498 240.976 172.683 240.976 174.003C240.976 175.343 241.166 176.538 241.546 177.588C241.936 178.638 242.461 179.528 243.121 180.258C243.791 180.978 244.576 181.528 245.476 181.908C246.386 182.288 247.366 182.478 248.416 182.478C249.056 182.478 249.631 182.443 250.141 182.373C250.661 182.293 251.136 182.173 251.566 182.013C252.006 181.853 252.411 181.653 252.781 181.413C253.161 181.163 253.536 180.868 253.906 180.528C254.076 180.378 254.246 180.303 254.416 180.303ZM268.26 182.433C269.15 182.433 269.945 182.283 270.645 181.983C271.345 181.683 271.935 181.263 272.415 180.723C272.905 180.183 273.275 179.538 273.525 178.788C273.785 178.038 273.915 177.213 273.915 176.313V163.248H276.81V176.313C276.81 177.553 276.61 178.703 276.21 179.763C275.82 180.823 275.255 181.743 274.515 182.523C273.785 183.293 272.89 183.898 271.83 184.338C270.77 184.778 269.58 184.998 268.26 184.998C266.94 184.998 265.75 184.778 264.69 184.338C263.63 183.898 262.73 183.293 261.99 182.523C261.25 181.743 260.68 180.823 260.28 179.763C259.89 178.703 259.695 177.553 259.695 176.313V163.248H262.59V176.298C262.59 177.198 262.715 178.023 262.965 178.773C263.225 179.523 263.595 180.168 264.075 180.708C264.565 181.248 265.16 181.673 265.86 181.983C266.57 182.283 267.37 182.433 268.26 182.433ZM294.82 182.298V184.743H282.625V163.248H285.52V182.298H294.82ZM310.358 165.693H303.398V184.743H300.503V165.693H293.528V163.248H310.358V165.693ZM322.218 176.178V184.743H319.308V176.178L311.433 163.248H313.983C314.243 163.248 314.448 163.313 314.598 163.443C314.748 163.563 314.878 163.723 314.988 163.923L319.908 172.278C320.088 172.628 320.253 172.958 320.403 173.268C320.553 173.568 320.683 173.873 320.793 174.183C320.903 173.873 321.028 173.568 321.168 173.268C321.308 172.958 321.463 172.628 321.633 172.278L326.538 163.923C326.628 163.753 326.753 163.598 326.913 163.458C327.073 163.318 327.278 163.248 327.528 163.248H330.093L322.218 176.178Z" fill="white"/>
<path fill-rule="evenodd" clip-rule="evenodd" d="M84.5404 104.941H167.35C168.7 104.941 169.81 106.183 169.81 107.694V123.845H169.88V181.934V185.157V185.851H86.5104V181.934H166.38V124.528H79.6104V110.459C79.6104 107.426 81.8304 104.941 84.5404 104.941ZM47.0104 151.255C46.7004 144.764 51.4604 143.107 57.9104 143.533L66.0504 153.684L74.0204 143.667L93.7604 143.544C101.22 144.495 99.6504 153.225 93.7604 153.595H80.8404L77.8004 174.032L75.5004 194.783C74.9004 196.977 73.7004 198.409 71.9704 199.148L60.7404 199.237C58.4804 198.857 57.1304 197.379 56.7304 194.783L54.9804 176.304C50.3804 176.797 48.8404 173.148 48.3604 167.865L47.0104 151.255ZM65.5604 115.876C71.0904 115.876 75.5704 120.89 75.5704 127.08C75.5704 133.269 71.0904 138.283 65.5604 138.283C60.0304 138.283 55.5504 133.269 55.5504 127.08C55.5404 120.901 60.0304 115.876 65.5604 115.876ZM65.9404 148.916L59.6004 141.137L61.4704 139.47C64.2204 140.757 66.9504 140.757 69.6504 139.47L72.2104 141.171L65.9404 148.916ZM113.04 109.955C115.05 109.955 116.68 111.78 116.68 114.029C116.68 116.279 115.05 118.103 113.04 118.103C111.03 118.103 109.4 116.279 109.4 114.029C109.4 111.78 111.03 109.955 113.04 109.955ZM92.3304 109.955C94.3404 109.955 95.9704 111.78 95.9704 114.029C95.9704 116.279 94.3404 118.103 92.3304 118.103C90.3204 118.103 88.6904 116.279 88.6904 114.029C88.6904 111.78 90.3204 109.955 92.3304 109.955ZM102.68 109.955C104.69 109.955 106.32 111.78 106.32 114.029C106.32 116.279 104.69 118.103 102.68 118.103C100.67 118.103 99.0404 116.279 99.0404 114.029C99.0404 111.78 100.67 109.955 102.68 109.955ZM156.11 111.802C155.74 111.388 155.74 110.705 156.11 110.291C156.48 109.877 157.09 109.877 157.46 110.291L159.46 112.529L161.46 110.291C161.83 109.877 162.44 109.877 162.81 110.291C163.18 110.705 163.18 111.388 162.81 111.802L160.81 114.04L162.81 116.279C163.18 116.693 163.18 117.376 162.81 117.79C162.44 118.204 161.83 118.204 161.46 117.79L159.46 115.551L157.46 117.79C157.09 118.204 156.48 118.204 156.11 117.79C155.74 117.376 155.74 116.693 156.11 116.279L158.11 114.04L156.11 111.802Z" fill="white"/>
</g>
<defs>
<clipPath id="clip0_4_1038">
<rect width="387.5" height="300" fill="white" transform="translate(0.5)"/>
</clipPath>
</defs>
</svg>
