<svg width="388" height="300" viewBox="0 0 388 300" fill="none" xmlns="http://www.w3.org/2000/svg">
<rect width="387.5" height="300" fill="#99BBD1"/>
<path d="M226.849 145.228C227.857 145.228 228.767 145.067 229.579 144.745C230.405 144.423 231.105 143.975 231.679 143.401C232.267 142.827 232.715 142.148 233.023 141.364C233.345 140.58 233.506 139.726 233.506 138.802C233.506 137.822 233.352 136.94 233.044 136.156C232.736 135.358 232.295 134.686 231.721 134.14C231.161 133.58 230.489 133.153 229.705 132.859C228.921 132.565 228.06 132.418 227.122 132.418C226.114 132.418 225.204 132.593 224.392 132.943C223.58 133.279 222.887 133.741 222.313 134.329C221.753 134.903 221.319 135.575 221.011 136.345C220.717 137.101 220.57 137.892 220.57 138.718C220.57 139.684 220.71 140.566 220.99 141.364C221.27 142.162 221.676 142.848 222.208 143.422C222.754 143.996 223.412 144.444 224.182 144.766C224.966 145.074 225.855 145.228 226.849 145.228ZM224.665 129.184C224.399 129.52 224.14 129.849 223.888 130.171C223.65 130.479 223.419 130.787 223.195 131.095C223.909 130.605 224.693 130.227 225.547 129.961C226.401 129.695 227.332 129.562 228.34 129.562C229.558 129.562 230.706 129.765 231.784 130.171C232.862 130.563 233.8 131.144 234.598 131.914C235.41 132.67 236.054 133.608 236.53 134.728C237.006 135.834 237.244 137.101 237.244 138.529C237.244 139.915 236.992 141.203 236.488 142.393C235.984 143.583 235.277 144.619 234.367 145.501C233.471 146.383 232.386 147.076 231.112 147.58C229.852 148.084 228.459 148.336 226.933 148.336C225.421 148.336 224.049 148.098 222.817 147.622C221.585 147.132 220.535 146.446 219.667 145.564C218.813 144.668 218.148 143.59 217.672 142.33C217.21 141.056 216.979 139.635 216.979 138.067C216.979 136.751 217.266 135.351 217.84 133.867C218.428 132.369 219.359 130.773 220.633 129.079L228.277 118.81C228.473 118.558 228.739 118.348 229.075 118.18C229.425 117.998 229.824 117.907 230.272 117.907H233.59L224.665 129.184ZM263.014 132.964C263.014 135.596 262.727 137.878 262.153 139.81C261.593 141.728 260.823 143.317 259.843 144.577C258.863 145.837 257.701 146.775 256.357 147.391C255.027 148.007 253.599 148.315 252.073 148.315C250.533 148.315 249.098 148.007 247.768 147.391C246.452 146.775 245.304 145.837 244.324 144.577C243.344 143.317 242.574 141.728 242.014 139.81C241.454 137.878 241.174 135.596 241.174 132.964C241.174 130.332 241.454 128.05 242.014 126.118C242.574 124.186 243.344 122.59 244.324 121.33C245.304 120.056 246.452 119.111 247.768 118.495C249.098 117.879 250.533 117.571 252.073 117.571C253.599 117.571 255.027 117.879 256.357 118.495C257.701 119.111 258.863 120.056 259.843 121.33C260.823 122.59 261.593 124.186 262.153 126.118C262.727 128.05 263.014 130.332 263.014 132.964ZM259.129 132.964C259.129 130.668 258.933 128.743 258.541 127.189C258.163 125.621 257.645 124.361 256.987 123.409C256.343 122.457 255.594 121.778 254.74 121.372C253.886 120.952 252.997 120.742 252.073 120.742C251.149 120.742 250.26 120.952 249.406 121.372C248.552 121.778 247.803 122.457 247.159 123.409C246.515 124.361 245.997 125.621 245.605 127.189C245.227 128.743 245.038 130.668 245.038 132.964C245.038 135.26 245.227 137.185 245.605 138.739C245.997 140.293 246.515 141.546 247.159 142.498C247.803 143.45 248.552 144.136 249.406 144.556C250.26 144.962 251.149 145.165 252.073 145.165C252.997 145.165 253.886 144.962 254.74 144.556C255.594 144.136 256.343 143.45 256.987 142.498C257.645 141.546 258.163 140.293 258.541 138.739C258.933 137.185 259.129 135.26 259.129 132.964ZM288.218 132.964C288.218 135.596 287.931 137.878 287.357 139.81C286.797 141.728 286.027 143.317 285.047 144.577C284.067 145.837 282.905 146.775 281.561 147.391C280.231 148.007 278.803 148.315 277.277 148.315C275.737 148.315 274.302 148.007 272.972 147.391C271.656 146.775 270.508 145.837 269.528 144.577C268.548 143.317 267.778 141.728 267.218 139.81C266.658 137.878 266.378 135.596 266.378 132.964C266.378 130.332 266.658 128.05 267.218 126.118C267.778 124.186 268.548 122.59 269.528 121.33C270.508 120.056 271.656 119.111 272.972 118.495C274.302 117.879 275.737 117.571 277.277 117.571C278.803 117.571 280.231 117.879 281.561 118.495C282.905 119.111 284.067 120.056 285.047 121.33C286.027 122.59 286.797 124.186 287.357 126.118C287.931 128.05 288.218 130.332 288.218 132.964ZM284.333 132.964C284.333 130.668 284.137 128.743 283.745 127.189C283.367 125.621 282.849 124.361 282.191 123.409C281.547 122.457 280.798 121.778 279.944 121.372C279.09 120.952 278.201 120.742 277.277 120.742C276.353 120.742 275.464 120.952 274.61 121.372C273.756 121.778 273.007 122.457 272.363 123.409C271.719 124.361 271.201 125.621 270.809 127.189C270.431 128.743 270.242 130.668 270.242 132.964C270.242 135.26 270.431 137.185 270.809 138.739C271.201 140.293 271.719 141.546 272.363 142.498C273.007 143.45 273.756 144.136 274.61 144.556C275.464 144.962 276.353 145.165 277.277 145.165C278.201 145.165 279.09 144.962 279.944 144.556C280.798 144.136 281.547 143.45 282.191 142.498C282.849 141.546 283.367 140.293 283.745 138.739C284.137 137.185 284.333 135.26 284.333 132.964ZM312.581 135.316H304.013V144.346H300.968V135.316H292.442V132.481H300.968V123.514H304.013V132.481H312.581V135.316Z" fill="#232323"/>
<path d="M228.451 164.472C228.361 164.622 228.261 164.737 228.151 164.817C228.051 164.887 227.926 164.922 227.776 164.922C227.606 164.922 227.406 164.837 227.176 164.667C226.946 164.497 226.656 164.312 226.306 164.112C225.966 163.902 225.551 163.712 225.061 163.542C224.581 163.372 223.996 163.287 223.306 163.287C222.656 163.287 222.081 163.377 221.581 163.557C221.091 163.727 220.676 163.962 220.336 164.262C220.006 164.562 219.756 164.917 219.586 165.327C219.416 165.727 219.331 166.162 219.331 166.632C219.331 167.232 219.476 167.732 219.766 168.132C220.066 168.522 220.456 168.857 220.936 169.137C221.426 169.417 221.976 169.662 222.586 169.872C223.206 170.072 223.836 170.282 224.476 170.502C225.126 170.722 225.756 170.972 226.366 171.252C226.986 171.522 227.536 171.867 228.016 172.287C228.506 172.707 228.896 173.222 229.186 173.832C229.486 174.442 229.636 175.192 229.636 176.082C229.636 177.022 229.476 177.907 229.156 178.737C228.836 179.557 228.366 180.272 227.746 180.882C227.136 181.492 226.381 181.972 225.481 182.322C224.591 182.672 223.576 182.847 222.436 182.847C221.036 182.847 219.766 182.597 218.626 182.097C217.486 181.587 216.511 180.902 215.701 180.042L216.541 178.662C216.621 178.552 216.716 178.462 216.826 178.392C216.946 178.312 217.076 178.272 217.216 178.272C217.346 178.272 217.491 178.327 217.651 178.437C217.821 178.537 218.011 178.667 218.221 178.827C218.431 178.987 218.671 179.162 218.941 179.352C219.211 179.542 219.516 179.717 219.856 179.877C220.206 180.037 220.601 180.172 221.041 180.282C221.481 180.382 221.976 180.432 222.526 180.432C223.216 180.432 223.831 180.337 224.371 180.147C224.911 179.957 225.366 179.692 225.736 179.352C226.116 179.002 226.406 178.587 226.606 178.107C226.806 177.627 226.906 177.092 226.906 176.502C226.906 175.852 226.756 175.322 226.456 174.912C226.166 174.492 225.781 174.142 225.301 173.862C224.821 173.582 224.271 173.347 223.651 173.157C223.031 172.957 222.401 172.757 221.761 172.557C221.121 172.347 220.491 172.107 219.871 171.837C219.251 171.567 218.701 171.217 218.221 170.787C217.741 170.357 217.351 169.822 217.051 169.182C216.761 168.532 216.616 167.732 216.616 166.782C216.616 166.022 216.761 165.287 217.051 164.577C217.351 163.867 217.781 163.237 218.341 162.687C218.911 162.137 219.606 161.697 220.426 161.367C221.256 161.037 222.206 160.872 223.276 160.872C224.476 160.872 225.566 161.062 226.546 161.442C227.536 161.822 228.406 162.372 229.156 163.092L228.451 164.472ZM248.88 163.557H241.92V182.607H239.025V163.557H232.05V161.112H248.88V163.557ZM261.975 174.627L258.6 165.882C258.5 165.622 258.395 165.322 258.285 164.982C258.175 164.632 258.07 164.262 257.97 163.872C257.76 164.682 257.545 165.357 257.325 165.897L253.95 174.627H261.975ZM268.035 182.607H265.785C265.525 182.607 265.315 182.542 265.155 182.412C264.995 182.282 264.875 182.117 264.795 181.917L262.785 176.727H253.14L251.13 181.917C251.07 182.097 250.955 182.257 250.785 182.397C250.615 182.537 250.405 182.607 250.155 182.607H247.905L256.5 161.112H259.44L268.035 182.607ZM274.373 163.482V170.997H283.208V173.367H274.373V182.607H271.463V161.112H284.708V163.482H274.373ZM291.936 163.482V170.997H300.771V173.367H291.936V182.607H289.026V161.112H302.271V163.482H291.936Z" fill="#232323" fill-opacity="0.8"/>
<g clip-path="url(#clip0_4_1039)">
<path fill-rule="evenodd" clip-rule="evenodd" d="M160.95 184.68L162.94 177.09L161.57 175.59C160.95 174.69 160.82 173.9 161.16 173.22C161.9 171.75 163.44 172.02 164.88 172.02C166.39 172.02 168.25 171.73 168.72 173.62C168.88 174.25 168.68 174.91 168.24 175.59L166.87 177.09L168.06 181.65L175.95 174.79L180.04 174.89C178.63 172.06 176.84 169.66 174.76 167.4C178.68 168.92 182.69 170.42 185.66 172.28C187.55 173.46 188.52 174.36 189.29 175.79C190.91 178.84 191.09 181.57 191.33 184.87L191.9 187.73H169.66L169.68 187.8H161.17C160.98 189.75 159.86 190.88 157.67 191.04H130.68H103.24C101.04 190.87 99.92 189.74 99.74 187.77L100.5 175.73C100.71 172.95 101.49 170.75 102.76 169.07C103.6 167.96 104.64 167.14 105.79 166.5C109.44 164.47 117.96 163.87 121.27 160.89L126.34 175.8L128.89 166.95L127.64 165.58C127.08 164.76 126.95 164.04 127.27 163.42C127.95 162.08 129.35 162.33 130.66 162.33C132.03 162.33 133.72 162.07 134.15 163.79C134.29 164.36 134.11 164.96 133.71 165.58L132.46 166.95L135.01 175.8L139.6 160.89C142.91 163.87 151.44 164.47 155.08 166.5C156.23 167.14 157.28 167.96 158.11 169.07C159.38 170.75 160.16 172.94 160.37 175.73L160.95 184.68ZM84.29 168.25L87.69 178.24L89.4 172.31L88.56 171.39C88.18 170.84 88.1 170.36 88.31 169.94C88.76 169.04 89.7 169.21 90.58 169.21C91.5 169.21 92.63 169.04 92.92 170.19C93.02 170.57 92.89 170.98 92.63 171.39L91.79 172.31L93.5 178.24L96.58 168.25C97.03 168.65 97.65 168.99 98.38 169.28C98.13 169.81 97.9 170.37 97.7 170.95C97.18 172.46 96.84 174.14 96.7 176.01H96.71C96.71 176.05 96.7 176.1 96.7 176.14L95.96 187.72H90.61H71.35C69.87 187.61 69.12 186.85 69 185.53L69.51 178.19C69.65 176.33 70.18 174.86 71.03 173.73C71.59 172.99 72.29 172.44 73.06 172.01C75.5 170.65 82.07 170.25 84.29 168.25ZM82.62 154.09C82.29 154.12 82.04 154.19 81.86 154.31C81.76 154.38 81.68 154.47 81.63 154.57C81.57 154.69 81.55 154.85 81.55 155.02C81.57 155.57 81.86 156.31 82.43 157.16L82.44 157.18L84.34 160.2C85.1 161.4 85.89 162.63 86.87 163.53C87.8 164.38 88.93 164.96 90.43 164.96C92.05 164.96 93.23 164.36 94.2 163.46C95.21 162.51 96.01 161.21 96.8 159.91L98.93 156.4C99.36 155.42 99.49 154.83 99.35 154.55C99.26 154.38 98.91 154.33 98.33 154.38C97.96 154.46 97.57 154.39 97.16 154.18L98.23 150.98C94.32 150.93 91.65 150.25 88.48 148.23C87.44 147.57 87.13 146.81 86.09 146.88C85.3 147.03 84.64 147.38 84.12 147.95C83.62 148.49 83.24 149.23 82.99 150.18L83.62 154.01C83.3 154.21 82.96 154.23 82.62 154.09ZM99.55 153.14C100.01 153.28 100.35 153.54 100.55 153.95C100.87 154.6 100.75 155.57 100.14 156.95C100.13 156.98 100.12 157 100.1 157.03L97.94 160.59C97.1 161.97 96.25 163.35 95.11 164.42C93.92 165.54 92.45 166.28 90.44 166.27C88.56 166.27 87.15 165.55 85.99 164.49C84.88 163.47 84.03 162.17 83.23 160.89L81.33 157.87C80.62 156.81 80.26 155.85 80.23 155.05C80.22 154.66 80.28 154.31 80.43 154.01C80.58 153.68 80.81 153.41 81.13 153.2C81.28 153.1 81.46 153.01 81.65 152.94C81.53 151.32 81.49 149.32 81.57 147.64C81.61 147.23 81.69 146.82 81.8 146.41C82.29 144.68 83.5 143.28 85.01 142.32C85.54 141.98 86.12 141.7 86.74 141.48C90.39 140.16 95.22 140.88 97.81 143.68C98.86 144.82 99.53 146.33 99.67 148.33L99.55 153.14ZM118.65 139.77C118.23 139.82 117.9 139.93 117.66 140.09C117.51 140.19 117.39 140.33 117.32 140.48C117.24 140.66 117.2 140.89 117.2 141.15C117.22 141.98 117.66 143.07 118.52 144.33L118.54 144.35L121.37 148.86C122.5 150.66 123.68 152.49 125.14 153.82C126.53 155.09 128.22 155.95 130.44 155.96C132.86 155.97 134.62 155.07 136.06 153.73C137.57 152.32 138.77 150.37 139.95 148.43L143.13 143.19C143.77 141.73 143.97 140.85 143.76 140.43C143.63 140.16 143.07 140.1 142.13 140.19C142.06 140.2 141.99 140.2 141.92 140.19C141.53 140.19 141.11 140.09 140.65 139.88L142.08 135.1C136.24 135.03 132.25 134.01 127.53 130.99C125.98 130 125.51 128.87 123.96 128.98C122.79 129.21 121.8 129.73 121.02 130.57C120.27 131.38 119.7 132.48 119.33 133.89L120.34 139.67C119.74 139.98 119.18 140 118.65 139.77ZM144.05 138.34C144.74 138.54 145.24 138.94 145.55 139.55C146.03 140.53 145.85 141.97 144.94 144.03C144.92 144.07 144.9 144.11 144.88 144.14L141.65 149.46C140.4 151.52 139.13 153.59 137.42 155.18C135.64 156.85 133.45 157.96 130.45 157.95C127.65 157.94 125.54 156.87 123.81 155.29C122.15 153.77 120.89 151.83 119.69 149.92L116.86 145.41C115.81 143.84 115.26 142.39 115.22 141.2C115.2 140.62 115.3 140.1 115.52 139.64C115.75 139.15 116.09 138.74 116.56 138.43C116.79 138.27 117.05 138.14 117.34 138.04C117.17 135.63 117.11 132.65 117.22 130.14C117.28 129.53 117.4 128.92 117.57 128.31C118.29 125.72 120.11 123.64 122.36 122.21C123.15 121.71 124.02 121.29 124.94 120.96C130.38 118.99 137.6 120.07 141.46 124.25C143.03 125.95 144.02 128.21 144.23 131.19L144.05 138.34ZM153.88 162.96L156.38 162.89L158.45 162.84C156.03 155.39 156.84 148.54 162.67 142.72C163.66 145.92 165.87 148.55 169.64 150.5C171.44 151.84 173.19 153.46 174.87 155.31C175.17 154.08 174.03 152.58 172.64 151.04C173.92 151.67 175.1 152.56 175.93 154.26C176.9 156.24 176.88 157.9 176.57 160.05C176.42 161.05 176.18 161.98 175.83 162.83H179.28C182.92 155.04 180.61 143.49 173.17 138.59C170.89 137.09 169.25 137.14 166.57 137.15C163.5 137.15 161.94 137.25 159.31 138.98C155.44 141.54 153.06 145.97 152.06 152.12C151.87 155.19 151.74 160.49 153.88 162.96Z" fill="#232323"/>
</g>
<defs>
<clipPath id="clip0_4_1039">
<rect width="122.88" height="71.04" fill="white" transform="translate(69 120)"/>
</clipPath>
</defs>
</svg>
