<svg width="388" height="300" viewBox="0 0 388 300" fill="none" xmlns="http://www.w3.org/2000/svg">
<g clip-path="url(#clip0_4_1036)">
<rect width="387.5" height="300" transform="translate(0.5)" fill="#202020"/>
<path d="M218.592 130.143V117.732C218.592 117.368 218.606 116.969 218.634 116.535C218.662 116.101 218.704 115.66 218.76 115.212L207.798 130.143H218.592ZM226.425 130.143V132.285C226.425 132.509 226.355 132.698 226.215 132.852C226.089 133.006 225.886 133.083 225.606 133.083H221.868V141H218.592V133.083H205.236C204.956 133.083 204.711 133.006 204.501 132.852C204.305 132.684 204.179 132.481 204.123 132.243L203.745 130.332L218.382 110.907H221.868V130.143H226.425ZM236.067 122.268C237.635 121.932 239.077 121.764 240.393 121.764C241.961 121.764 243.347 121.995 244.551 122.457C245.755 122.919 246.756 123.556 247.554 124.368C248.366 125.18 248.975 126.139 249.381 127.245C249.801 128.351 250.011 129.555 250.011 130.857C250.011 132.453 249.731 133.895 249.171 135.183C248.625 136.471 247.862 137.577 246.882 138.501C245.916 139.411 244.775 140.111 243.459 140.601C242.143 141.091 240.722 141.336 239.196 141.336C238.314 141.336 237.467 141.245 236.655 141.063C235.843 140.895 235.08 140.664 234.366 140.37C233.666 140.076 233.015 139.74 232.413 139.362C231.811 138.984 231.279 138.585 230.817 138.165L231.972 136.569C232.224 136.205 232.553 136.023 232.959 136.023C233.239 136.023 233.554 136.135 233.904 136.359C234.254 136.569 234.681 136.807 235.185 137.073C235.689 137.339 236.277 137.584 236.949 137.808C237.635 138.018 238.447 138.123 239.385 138.123C240.435 138.123 241.38 137.955 242.22 137.619C243.06 137.283 243.781 136.807 244.383 136.191C244.985 135.561 245.447 134.812 245.769 133.944C246.091 133.076 246.252 132.103 246.252 131.025C246.252 130.087 246.112 129.24 245.832 128.484C245.566 127.728 245.153 127.084 244.593 126.552C244.047 126.02 243.361 125.607 242.535 125.313C241.709 125.019 240.743 124.872 239.637 124.872C238.881 124.872 238.09 124.935 237.264 125.061C236.452 125.187 235.619 125.39 234.765 125.67L232.413 124.977L234.828 110.907H249.087V112.545C249.087 113.077 248.919 113.518 248.583 113.868C248.261 114.204 247.701 114.372 246.903 114.372H237.453L236.067 122.268ZM276.768 125.964C276.768 128.596 276.481 130.878 275.907 132.81C275.347 134.728 274.577 136.317 273.597 137.577C272.617 138.837 271.455 139.775 270.111 140.391C268.781 141.007 267.353 141.315 265.827 141.315C264.287 141.315 262.852 141.007 261.522 140.391C260.206 139.775 259.058 138.837 258.078 137.577C257.098 136.317 256.328 134.728 255.768 132.81C255.208 130.878 254.928 128.596 254.928 125.964C254.928 123.332 255.208 121.05 255.768 119.118C256.328 117.186 257.098 115.59 258.078 114.33C259.058 113.056 260.206 112.111 261.522 111.495C262.852 110.879 264.287 110.571 265.827 110.571C267.353 110.571 268.781 110.879 270.111 111.495C271.455 112.111 272.617 113.056 273.597 114.33C274.577 115.59 275.347 117.186 275.907 119.118C276.481 121.05 276.768 123.332 276.768 125.964ZM272.883 125.964C272.883 123.668 272.687 121.743 272.295 120.189C271.917 118.621 271.399 117.361 270.741 116.409C270.097 115.457 269.348 114.778 268.494 114.372C267.64 113.952 266.751 113.742 265.827 113.742C264.903 113.742 264.014 113.952 263.16 114.372C262.306 114.778 261.557 115.457 260.913 116.409C260.269 117.361 259.751 118.621 259.359 120.189C258.981 121.743 258.792 123.668 258.792 125.964C258.792 128.26 258.981 130.185 259.359 131.739C259.751 133.293 260.269 134.546 260.913 135.498C261.557 136.45 262.306 137.136 263.16 137.556C264.014 137.962 264.903 138.165 265.827 138.165C266.751 138.165 267.64 137.962 268.494 137.556C269.348 137.136 270.097 136.45 270.741 135.498C271.399 134.546 271.917 133.293 272.295 131.739C272.687 130.185 272.883 128.26 272.883 125.964ZM301.132 128.316H292.564V137.346H289.519V128.316H280.993V125.481H289.519V116.514H292.564V125.481H301.132V128.316Z" fill="white"/>
<path d="M212.352 174.817C213.182 174.817 213.912 174.707 214.542 174.487C215.182 174.267 215.717 173.962 216.147 173.572C216.587 173.172 216.917 172.697 217.137 172.147C217.357 171.597 217.467 170.992 217.467 170.332C217.467 168.962 217.042 167.892 216.192 167.122C215.352 166.352 214.072 165.967 212.352 165.967H208.902V174.817H212.352ZM212.352 163.672C213.712 163.672 214.892 163.832 215.892 164.152C216.902 164.462 217.737 164.907 218.397 165.487C219.057 166.067 219.547 166.767 219.867 167.587C220.197 168.407 220.362 169.322 220.362 170.332C220.362 171.332 220.187 172.247 219.837 173.077C219.487 173.907 218.972 174.622 218.292 175.222C217.622 175.822 216.787 176.292 215.787 176.632C214.797 176.962 213.652 177.127 212.352 177.127H208.902V185.167H206.007V163.672H212.352ZM234.545 177.187L231.17 168.442C231.07 168.182 230.965 167.882 230.855 167.542C230.745 167.192 230.64 166.822 230.54 166.432C230.33 167.242 230.115 167.917 229.895 168.457L226.52 177.187H234.545ZM240.605 185.167H238.355C238.095 185.167 237.885 185.102 237.725 184.972C237.565 184.842 237.445 184.677 237.365 184.477L235.355 179.287H225.71L223.7 184.477C223.64 184.657 223.525 184.817 223.355 184.957C223.185 185.097 222.975 185.167 222.725 185.167H220.475L229.07 163.672H232.01L240.605 185.167ZM258.568 166.117H251.608V185.167H248.713V166.117H241.738V163.672H258.568V166.117ZM275.617 182.797L275.603 185.167H262.357V163.672H275.603V166.042H265.267V173.182H273.638V175.462H265.267V182.797H275.617ZM297.687 163.672V185.167H296.232C296.002 185.167 295.807 185.127 295.647 185.047C295.497 184.967 295.347 184.832 295.197 184.642L282.762 168.442C282.782 168.692 282.797 168.937 282.807 169.177C282.817 169.417 282.822 169.642 282.822 169.852V185.167H280.272V163.672H281.772C281.902 163.672 282.012 163.682 282.102 163.702C282.192 163.712 282.272 163.737 282.342 163.777C282.412 163.807 282.482 163.857 282.552 163.927C282.622 163.987 282.697 164.067 282.777 164.167L295.212 180.352C295.192 180.092 295.172 179.842 295.152 179.602C295.142 179.352 295.137 179.117 295.137 178.897V163.672H297.687ZM318.317 166.117H311.357V185.167H308.462V166.117H301.487V163.672H318.317V166.117ZM333.014 167.032C332.924 167.182 332.824 167.297 332.714 167.377C332.614 167.447 332.489 167.482 332.339 167.482C332.169 167.482 331.969 167.397 331.739 167.227C331.509 167.057 331.219 166.872 330.869 166.672C330.529 166.462 330.114 166.272 329.624 166.102C329.144 165.932 328.559 165.847 327.869 165.847C327.219 165.847 326.644 165.937 326.144 166.117C325.654 166.287 325.239 166.522 324.899 166.822C324.569 167.122 324.319 167.477 324.149 167.887C323.979 168.287 323.894 168.722 323.894 169.192C323.894 169.792 324.039 170.292 324.329 170.692C324.629 171.082 325.019 171.417 325.499 171.697C325.989 171.977 326.539 172.222 327.149 172.432C327.769 172.632 328.399 172.842 329.039 173.062C329.689 173.282 330.319 173.532 330.929 173.812C331.549 174.082 332.099 174.427 332.579 174.847C333.069 175.267 333.459 175.782 333.749 176.392C334.049 177.002 334.199 177.752 334.199 178.642C334.199 179.582 334.039 180.467 333.719 181.297C333.399 182.117 332.929 182.832 332.309 183.442C331.699 184.052 330.944 184.532 330.044 184.882C329.154 185.232 328.139 185.407 326.999 185.407C325.599 185.407 324.329 185.157 323.189 184.657C322.049 184.147 321.074 183.462 320.264 182.602L321.104 181.222C321.184 181.112 321.279 181.022 321.389 180.952C321.509 180.872 321.639 180.832 321.779 180.832C321.909 180.832 322.054 180.887 322.214 180.997C322.384 181.097 322.574 181.227 322.784 181.387C322.994 181.547 323.234 181.722 323.504 181.912C323.774 182.102 324.079 182.277 324.419 182.437C324.769 182.597 325.164 182.732 325.604 182.842C326.044 182.942 326.539 182.992 327.089 182.992C327.779 182.992 328.394 182.897 328.934 182.707C329.474 182.517 329.929 182.252 330.299 181.912C330.679 181.562 330.969 181.147 331.169 180.667C331.369 180.187 331.469 179.652 331.469 179.062C331.469 178.412 331.319 177.882 331.019 177.472C330.729 177.052 330.344 176.702 329.864 176.422C329.384 176.142 328.834 175.907 328.214 175.717C327.594 175.517 326.964 175.317 326.324 175.117C325.684 174.907 325.054 174.667 324.434 174.397C323.814 174.127 323.264 173.777 322.784 173.347C322.304 172.917 321.914 172.382 321.614 171.742C321.324 171.092 321.179 170.292 321.179 169.342C321.179 168.582 321.324 167.847 321.614 167.137C321.914 166.427 322.344 165.797 322.904 165.247C323.474 164.697 324.169 164.257 324.989 163.927C325.819 163.597 326.769 163.432 327.839 163.432C329.039 163.432 330.129 163.622 331.109 164.002C332.099 164.382 332.969 164.932 333.719 165.652L333.014 167.032Z" fill="white"/>
<g clip-path="url(#clip1_4_1036)">
<path fill-rule="evenodd" clip-rule="evenodd" d="M58.73 104H170.16C171.74 104 173.17 104.64 174.21 105.68C175.25 106.72 175.89 108.15 175.89 109.73V181C175.89 182.58 175.25 184.01 174.21 185.05C173.17 186.09 171.74 186.73 170.16 186.73H167.78L162.77 177.07C163.05 176.22 163.24 175.38 163.37 174.55L163.45 174.02C164.01 173.39 164.56 172.66 165.08 171.81C165.17 171.66 165.26 171.51 165.35 171.35C166.23 169.77 166.81 168.11 167.09 166.33C167.11 166.22 167.12 166.1 167.14 165.99L169.66 163.47V127.25L152.63 110.23H76.25L59.23 127.25V163.47L76.25 180.49H113.5L110.42 186.44C110.37 186.53 110.32 186.63 110.27 186.72H58.73C57.15 186.72 55.72 186.08 54.68 185.04C53.64 184.01 53 182.58 53 181V109.73C53 108.15 53.64 106.72 54.68 105.68C55.72 104.64 57.15 104 58.73 104ZM139.02 145.37C139.56 145.34 140.04 145.43 140.49 145.58C140.93 145.73 141.33 145.96 141.75 146.21C142.17 146.48 142.61 146.84 143.07 147.25L143.1 147.28C143.68 147.78 144.33 148.33 145.05 148.74C145.64 149.07 146.51 149.1 147.43 149.15C149.16 149.21 151.04 149.29 152.28 151.13C153.35 152.74 153.44 153.95 153.51 155.17L153.53 155.3C153.56 155.89 153.63 156.44 153.84 157.04C154.05 157.66 154.41 158.32 155.01 159.13C156.14 160.62 156.81 161.88 157.07 163.04C157.34 164.26 157.16 165.35 156.54 166.47L156.52 166.5C156.06 167.3 155.38 167.88 154.79 168.38C154.35 168.76 153.96 169.09 153.84 169.36C153.52 170.1 153.51 170.77 153.51 171.48C153.49 172.44 153.48 173.43 152.85 174.7L152.84 174.73C152.43 175.51 151.92 176.17 151.31 176.7C150.68 177.24 149.94 177.65 149.1 177.92C148.35 178.16 147.66 178.12 146.98 178.07C146.42 178.03 145.91 178 145.52 178.16L145.47 178.17C144.66 178.52 143.92 179.12 143.22 179.67C142.44 180.3 141.7 180.89 140.86 181.16C140.24 181.36 139.63 181.45 139.01 181.45C138.39 181.45 137.78 181.36 137.16 181.16L137.13 181.15C136.3 180.89 135.57 180.29 134.79 179.66C134.08 179.09 133.33 178.49 132.5 178.14C132.11 177.97 131.6 178.02 131.04 178.05C130.38 178.09 129.67 178.14 128.91 177.9L128.87 177.88C128.04 177.61 127.32 177.21 126.69 176.68C126.07 176.14 125.55 175.48 125.16 174.68C124.53 173.42 124.52 172.43 124.5 171.47C124.48 170.76 124.48 170.09 124.17 169.35L124.16 169.34C124.03 169.05 123.63 168.72 123.2 168.35C122.6 167.84 121.92 167.27 121.47 166.47L121.44 166.42C120.82 165.32 120.66 164.24 120.93 163.03C121.19 161.87 121.88 160.61 123 159.12C123.62 158.32 123.96 157.65 124.17 157.03C124.38 156.43 124.46 155.86 124.49 155.27L124.51 155.15C124.58 153.93 124.68 152.69 125.74 151.11L125.77 151.08C127 149.26 128.87 149.2 130.58 149.14C131.5 149.11 132.38 149.06 132.97 148.73L132.99 148.71C133.7 148.3 134.34 147.76 134.93 147.25C135.4 146.84 135.83 146.47 136.28 146.2C136.69 145.93 137.11 145.72 137.54 145.57C138.01 145.43 138.49 145.36 139.02 145.37ZM157.35 195.29L152.83 194.48L150.56 198.55C150.55 198.58 150.53 198.61 150.5 198.63C149.55 199.8 148.68 199.77 147.93 199.16C147.12 198.5 146.58 197.09 146.23 196.16L146.1 195.8L141.31 186.75C141.16 186.46 141.27 186.12 141.55 185.98C141.58 185.96 141.61 185.95 141.63 185.95C142.13 185.78 142.68 185.44 143.28 184.99C143.91 184.52 144.57 183.94 145.25 183.34C145.37 183.23 145.52 183.17 145.69 183.19C146.98 183.22 148.24 183.11 149.37 182.74C150.48 182.36 151.5 181.7 152.37 180.59C152.57 180.33 152.93 180.29 153.17 180.48C153.23 180.54 153.29 180.6 153.32 180.68L158.86 191.38L159.34 192.42C159.36 192.45 159.37 192.48 159.37 192.51C159.59 193.31 159.64 194 159.37 194.52C159.07 195.11 158.48 195.41 157.49 195.33C157.46 195.32 157.4 195.3 157.35 195.29ZM125.24 194.48L120.72 195.29C120.68 195.3 120.63 195.3 120.57 195.3C119.58 195.38 118.99 195.07 118.69 194.49C118.42 193.98 118.46 193.29 118.69 192.48L118.72 192.39L119.2 191.35L124.74 180.65C124.77 180.57 124.83 180.51 124.89 180.45C125.15 180.25 125.49 180.3 125.69 180.55C126.55 181.65 127.57 182.31 128.7 182.7C129.84 183.09 131.09 183.18 132.38 183.15C132.53 183.14 132.68 183.18 132.82 183.3C133.5 183.9 134.16 184.49 134.79 184.95C135.39 185.4 135.95 185.75 136.44 185.91L136.51 185.94C136.8 186.09 136.9 186.44 136.75 186.71L131.96 195.75L131.82 196.1C131.48 197.03 130.94 198.44 130.12 199.1C129.37 199.7 128.51 199.75 127.55 198.57C127.53 198.54 127.51 198.53 127.49 198.5L125.24 194.48ZM146.02 156.4C144.23 154.61 141.77 153.5 139.03 153.5C136.29 153.5 133.83 154.61 132.04 156.4C130.25 158.19 129.14 160.65 129.14 163.39C129.14 166.12 130.25 168.59 132.04 170.38C133.83 172.17 136.29 173.28 139.03 173.28C141.76 173.28 144.23 172.17 146.02 170.38C147.81 168.59 148.92 166.13 148.92 163.39C148.91 160.67 147.81 158.19 146.02 156.4ZM84.02 155.16C83.62 155.16 83.26 154.91 83 154.52C82.74 154.12 82.57 153.57 82.57 152.96C82.57 152.35 82.73 151.8 83 151.4C83.26 151 83.63 150.76 84.02 150.76H101.12C101.52 150.76 101.88 151.01 102.14 151.4C102.4 151.8 102.56 152.35 102.56 152.96C102.56 153.57 102.4 154.13 102.14 154.52C101.88 154.92 101.51 155.16 101.12 155.16H84.02ZM82.94 168.84C87.16 163.3 90.77 165.82 95.81 169.34C96.06 169.52 96.32 169.69 96.57 169.87C97.29 170.37 98.05 170.28 98.81 169.91C99.63 169.5 100.46 168.77 101.28 168.04L101.3 168.03C102.04 167.38 102.76 166.74 103.54 166.25C103.67 166.17 103.85 166.21 103.93 166.34L105.08 168.15C105.16 168.28 105.12 168.46 104.99 168.54C104.39 168.92 103.74 169.5 103.08 170.08L103.06 170.09C101.91 171.11 100.73 172.14 99.43 172.68C98.09 173.23 96.64 173.23 95.03 172.11L94.26 171.57C92.32 170.21 90.66 169.06 89.16 168.69C87.73 168.35 86.42 168.76 85.1 170.49C85 170.62 84.82 170.64 84.7 170.54L83 169.25C82.87 169.15 82.84 168.97 82.94 168.84ZM84.02 126.83C83.62 126.83 83.25 126.58 82.99 126.19C82.73 125.8 82.56 125.24 82.56 124.64C82.56 124.03 82.72 123.49 82.99 123.09C83.25 122.69 83.62 122.45 84.02 122.45H125.37C125.77 122.45 126.14 122.7 126.4 123.09C126.66 123.49 126.82 124.04 126.82 124.64C126.82 125.25 126.66 125.79 126.4 126.19C126.14 126.59 125.77 126.84 125.37 126.84L84.02 126.83ZM84.02 141.72C83.62 141.72 83.26 141.47 83 141.07C82.74 140.67 82.57 140.12 82.57 139.52C82.57 138.91 82.73 138.37 83 137.96C83.26 137.56 83.63 137.32 84.03 137.32H117.08C117.48 137.32 117.84 137.57 118.1 137.96C118.36 138.36 118.53 138.91 118.53 139.51C118.53 140.12 118.37 140.66 118.1 141.06C117.84 141.46 117.47 141.7 117.08 141.7H84.02V141.72Z" fill="white"/>
</g>
</g>
<defs>
<clipPath id="clip0_4_1036">
<rect width="387.5" height="300" fill="white" transform="translate(0.5)"/>
</clipPath>
<clipPath id="clip1_4_1036">
<rect width="122.88" height="95.57" fill="white" transform="translate(53 104)"/>
</clipPath>
</defs>
</svg>
