<svg width="32" height="31" viewBox="0 0 32 31" fill="none" xmlns="http://www.w3.org/2000/svg">
<path d="M22.5071 19.434H21.107L20.6107 18.9569C22.3476 16.9429 23.3933 14.3281 23.3933 11.4837C23.3933 5.14117 18.2358 0 11.8731 0C5.5105 0 0.353027 5.14117 0.353027 11.4837C0.353027 17.8262 5.5105 22.9674 11.8731 22.9674C14.7266 22.9674 17.3496 21.925 19.3701 20.1937L19.8486 20.6883V22.084L28.7103 30.9L31.351 28.2676L22.5071 19.434ZM11.8731 19.434C7.46006 19.434 3.89768 15.8828 3.89768 11.4837C3.89768 7.08456 7.46006 3.53345 11.8731 3.53345C16.2862 3.53345 19.8486 7.08456 19.8486 11.4837C19.8486 15.8828 16.2862 19.434 11.8731 19.434Z" fill="white"/>
</svg>
